<?xml version="1.0" encoding="utf-8" ?>
<svg baseProfile="full" height="200mm" version="1.1" viewBox="0,0,200,200" width="200mm" xmlns="http://www.w3.org/2000/svg" xmlns:ev="http://www.w3.org/2001/xml-events" xmlns:xlink="http://www.w3.org/1999/xlink"><defs /><rect fill="#1a1a1a" height="200" width="200" x="0" y="0" /><rect fill="#1a1a1a" height="200" width="180" x="10" y="0" /><text alignment-baseline="middle" fill="#e1ed5e" style="dominant-baseline: central; font-size:9.0px; font-family:Arial;" text-anchor="middle" x="100.0" y="100.0">2026</text><line stroke="#e1ed5e" stroke-width="0.3" x1="100.0" x2="100.0" y1="15.0" y2="10.0" /><path d="M 100.0 14.0 a86.0,86.0 0 0,1 42.46469731375804,11.215312516191453" fill="none" id="id1" stroke="none" /><text fill="#e1ed5e" style="font-size:6.75px; font-family:Arial;" text-anchor="middle"><textPath startOffset="22.20632615414155" xlink:href="#id1">January</textPath></text><line stroke="#e1ed5e" stroke-width="0.3" x1="143.23703022742887" x2="145.7803849466894" y1="26.81831364943548" y2="22.513508569990506" /><path d="M 143.74570117128098 25.957352633546492 a86.0,86.0 0 0,1 28.547481713284135,27.462654790039103" fill="none" id="id2" stroke="none" /><text fill="#e1ed5e" style="font-size:6.75px; font-family:Arial;" text-anchor="middle"><textPath startOffset="19.985693538727396" xlink:href="#id2">February</textPath></text><path d="M 111.2981086023043 82.29822771554956 l 8.468365615408773 -13.268157089131043 a36.74030523014392,36.74030523014392 0 0,0 0.5301678079754228,0.34483588988422315 l -8.695500449168476 13.120422275087291" fill="#ff6c09" stroke="none" /><path d="M 111.90073688211348 82.69761687909136 l 10.157875250578245 -14.768450980884802 a38.924552267242476,38.924552267242476 0 0,0 0.5487784681894807,0.3844543870882622 l -10.410584858351378 14.591411751032606" fill="#ff8d0d" stroke="none" /><path d="M 112.48926042617603 83.11751280151076 l 18.333583661882045 -24.782611692958607 a51.826905978563545,51.826905978563545 0 0,0 0.7126294495291848,0.5367377270275138 l -18.757459265169615 24.463357376425243" fill="#baff1f" stroke="none" /><path d="M 113.06298171725822 83.55741782278167 l 12.86623737860172 -16.194936959129404 a41.68371454533019,41.68371454533019 0 0,0 0.5579595473285811,0.4511644837874316 l -13.143100324494792 15.971066378077843" fill="#ffb711" stroke="none" /><path d="M 114.16331599549186 84.49514656593476 l 10.411488197762761 -11.397655647038725 a36.43715131559664,36.43715131559664 0 0,0 0.4594414478735341,0.42700075406060534 l -10.606137529431141 11.216750306903478" fill="#ff6709" stroke="none" /><path d="M 114.42810811169701 84.74124197986012 l 20.088182648749118 -21.244692355273937 a50.238194804052796,50.238194804052796 0 0,0 0.6232329312913951,0.5995495861155178 l -20.45089882365293 20.89575968239612" fill="#cfff1d" stroke="none" /><path d="M 115.19652480421416 85.50635884689758 l 13.59371006971268 -12.96496128082481 a39.78507850589649,39.78507850589649 0 0,0 0.4683891192680078,0.4996448549482119 l -13.814866510951152 12.729047008998542" fill="#ff9a0e" stroke="none" /><path d="M 115.68641384162765 86.03803664274999 l 10.286924255598072 -9.156054466338352 a34.77149752318049,34.77149752318049 0 0,0 0.3940904440999836,0.45051350302786397 l -10.443006563275905 8.97762540710754" fill="#ff4c07" stroke="none" /><path d="M 115.9244219780498 86.31012108654704 l 14.29407819650827 -12.28830785565448 a39.85001807540865,39.85001807540865 0 0,0 0.4426945842542559,0.5240107546972588 l -14.503483394249644 12.040438151328114" fill="#ff9b0e" stroke="none" /><path d="M 116.38621287248628 86.86637796730983 l 12.168022655176925 -9.752723932119697 a36.59411425612366,36.59411425612366 0 0,0 0.38972020607906205,0.49490508501384145 l -12.33409694184995 9.541826453152815" fill="#ff6909" stroke="none" /><path d="M 116.60985879189232 87.15038557335679 l 12.468957005515078 -9.64615604688153 a36.764619097402026,36.764619097402026 0 0,0 0.38291936881418376,0.5038770040555808 l -12.633152314553374 9.430094266944916" fill="#ff6c09" stroke="none" /><path d="M 116.82858285166822 87.43820079747576 l 12.196114598310578 -9.103864774909727 a36.219249821688535,36.219249821688535 0 0,0 0.36863846826685764,0.5028224564317506 l -12.351015679091061 8.892579874806483" fill="#ff6309" stroke="none" /><path d="M 117.04232023915458 87.72973835380427 l 15.081227051955457 -10.858298592936103 a39.58348884698434,39.58348884698434 0 0,0 0.3933606945952086,0.5563808062877048 l -15.265900366354549 10.597091286316605" fill="#ff970e" stroke="none" /><path d="M 117.2510076193507 88.02491185347247 l 12.940151911209789 -8.982632387940848 a36.75230827853716,36.75230827853716 0 0,0 0.35627956170050645,0.5227962942066678 l -13.09285593857903 8.758558070463772" fill="#ff6c09" stroke="none" /><line stroke="#e1ed5e" stroke-width="0.3" x1="172.23445277983987" x2="176.4835382374775" y1="55.19839476539836" y2="52.563006222186495" /><path d="M 173.08426987136738 54.67131705675599 a86.0,86.0 0 0,1 12.851231095245387,41.99856678651699" fill="none" id="id3" stroke="none" /><text fill="#e1ed5e" style="font-size:6.75px; font-family:Arial;" text-anchor="middle"><textPath startOffset="22.20632615414155" xlink:href="#id3">March</textPath></text><path d="M 117.84615892207809 88.93136811851018 l 26.212662947311472 -16.257745886058355 a51.84506443638922,51.84506443638922 0 0,0 0.4638508830681081,0.7624488903863063 l -26.488629628665805 15.804129222464969" fill="#b9ff1f" stroke="none" /><path d="M 118.03404312379186 89.2402003453031 l 17.33478763388216 -10.342597093561329 a41.185741922246436,41.185741922246436 0 0,0 0.35800279703180726,0.6119428284390543 l -17.510250105384298 10.04267485276838" fill="#ffb010" stroke="none" /><path d="M 118.56541770881063 90.18545643968196 l 17.75005505161708 -9.383504924829381 a41.07771448670725,41.07771448670725 0 0,0 0.3250823169063228,0.6279555646397346 l -17.908946801683516 9.076576637929302" fill="#ffae10" stroke="none" /><path d="M 118.73160827565052 90.50648371742162 l 18.182648744802016 -9.215293709914333 a41.384561646913994,41.384561646913994 0 0,0 0.31657216413757844,0.6381901654060574 l -18.338580921893 8.900943956009325" fill="#ffb210" stroke="none" /><path d="M 119.04729006885535 91.15688171328212 l 27.98834473541865 -12.994197192882808 a51.857683025725706,51.857683025725706 0 0,0 0.36892465198536145,0.8128765678339737 l -28.20787170436736 12.510498616206771" fill="#b9ff1f" stroke="none" /><path d="M 119.61058180528143 92.48833698450437 l 19.77679915685381 -7.575331128187917 a42.177993922754496,42.177993922754496 0 0,0 0.253862138002024,0.680224317531159 l -19.904265883357457 7.233783673627425" fill="#ffbe11" stroke="none" /><path d="M 119.85752413597 93.16781622104841 l 20.106448927286472 -6.917828893104091 a42.26324634339369,42.26324634339369 0 0,0 0.2307627714154221,0.6899513144921675 l -20.222548992473662 6.57070447568961" fill="#ffbf11" stroke="none" /><path d="M 120.08093135843002 93.85539295169968 l 44.15719286876566 -13.511753697652555 a67.17818933257774,67.17818933257774 0 0,0 0.3288343669572638,1.1086660130594854 l -44.38323313283463 12.74965829784654" fill="#35ff65" stroke="none" /><path d="M 120.45610955862082 95.25157060432595 l 16.123808991026955 -3.74278248578113 a37.55251150475334,37.55251150475334 0 0,0 0.1407425446473642,0.630921230814434 l -16.185845922676357 3.4646830854167323" fill="#ff780b" stroke="none" /><path d="M 120.53481517161879 95.60439243477599 l 17.644263410707477 -3.7768666083784943 a39.043967210231656,39.043967210231656 0 0,0 0.13501906614660938,0.6584009175762167 l -17.706661772769085 3.472590034638866" fill="#ff8f0d" stroke="none" /><path d="M 120.6074358757038 95.95851677861258 l 24.69503672603551 -4.843134157097568 a46.165468153084056,46.165468153084056 0 0,0 0.14622203307451578,0.7811239475711742 l -24.774744483019887 4.417332132063831" fill="#fff817" stroke="none" /><path d="M 120.73433829027371 96.67025291283417 l 19.34420229140848 -3.1065038262435754 a40.59205268248835,40.59205268248835 0 0,0 0.10485141101078338,0.6908397932642238 l -19.39480959585856 2.7730649205872693" fill="#ffa70f" stroke="none" /><path d="M 120.78858239683441 97.02765380044208 l 19.240645568469944 -2.751022587340589 a40.436320823847815,40.436320823847815 0 0,0 0.09258762326626363,0.689885336455873 l -19.285149190794044 2.4194189088200515" fill="#ffa40f" stroke="none" /><path d="M 120.83666639777658 97.38593545837742 l 49.10304604974868 -6.160223958761721 a70.48795298439653,70.48795298439653 0 0,0 0.14067262986074666,1.2051971853195695 l -49.20180903261301 5.3140830351172985" fill="#3aff90" stroke="none" /><path d="M 120.96714384426684 98.82574320788733 l 30.83122126244749 -1.7266906377645166 a51.87953472921083,51.87953472921083 0 0,0 0.04226055455913361,0.892053513537352 l -30.85637542524012 1.195726017604165" fill="#b9ff1f" stroke="none" /><path d="M 120.98425023603335 99.18683210126433 l 18.736853007313194 -0.726078235700455 a39.75091598354649,39.75091598354649 0 0,0 0.02061048185223031,0.6839615529550525 l -18.74657518362107 0.40344653532040353" fill="#ff9a0e" stroke="none" /><line stroke="#e1ed5e" stroke-width="0.3" x1="184.98032266829074" x2="189.97916517819016" y1="98.17113171792111" y2="98.06355123074" /><path d="M 185.9800911702706 98.14961562048488 a86.0,86.0 0 0,1 -9.607161424134198,41.387399972396054" fill="none" id="id4" stroke="none" /><text fill="#e1ed5e" style="font-size:6.75px; font-family:Arial;" text-anchor="middle"><textPath startOffset="21.466115282336823" xlink:href="#id4">April</textPath></text><path d="M 120.99513854157772 99.54816195383933 l 19.184738877695363 -0.41287629102489687 a40.18918113513566,40.18918113513566 0 0,0 0.008931553442977075,0.6917586570758094 l -19.189003438256055 0.08258137588862477" fill="#ffa10e" stroke="none" /><path d="M 120.99824983174949 100.27111621757518 l 55.49285397870376 0.7164888880600929 a76.49747921328004,76.49747921328004 0 0,0 -0.02833298086075416,1.3165222882887335 l -55.472298935157994 -1.6716009921389412" fill="#42ffd9" stroke="none" /><path d="M 120.9904718944345 100.63252640178507 l 9.564242511377278 0.28820866591023614 a30.568583962715806,30.568583962715806 0 0,0 -0.020375951296996975,0.5258127644712239 l -9.55786442722908 -0.4527986773954663" fill="#ff0701" stroke="none" /><path d="M 120.9764740272857 100.99374915477107 l 17.792876148431564 0.8429279206052557 a38.81283158604383,38.81283158604383 0 0,0 -0.03735947422579569,0.6670785089768128 l -17.775730323318236 -1.1490781459174917" fill="#ff8c0c" stroke="none" /><path d="M 120.92983693683757 101.71520430193887 l 17.644423691693675 1.4459640327134757 a38.703573068618155,38.703573068618155 0 0,0 -0.06012950937539912,0.6635241254463261 l -17.6169195860412 -1.7494695467083725" fill="#ff8a0c" stroke="none" /><path d="M 120.89721153311464 102.0752229133903 l 22.754804968597917 2.259693480430769 a43.86673050054226,43.86673050054226 0 0,0 -0.08108597708117432,0.7507554423230235 l -22.71253669001569 -2.6510452446385835" fill="#ffd714" stroke="none" /><path d="M 120.76222939487914 103.15116336523771 l 56.56307288427775 8.584795000009375 a78.21083742879755,78.21083742879755 0 0,0 -0.213471809112055,1.329289159115521 l -56.406919320804406 -9.557163388818102" fill="#45ffed" stroke="none" /><path d="M 120.64145759157962 103.86396538481128 l 21.580567375507076 4.039761482617549 a42.95542213407068,42.95542213407068 0 0,0 -0.1423053141393304,0.725611730955397 l -21.50783212839208 -4.410636940640892" fill="#ffca12" stroke="none" /><path d="M 120.49622156327973 104.57218783832717 l 19.977552950504872 4.45648600927884 a41.46858298566669,41.46858298566669 0 0,0 -0.16141040499572865,0.6953518002188224 l -19.897881979578592 -4.799706466846227" fill="#ffb410" stroke="none" /><path d="M 120.41448212921028 104.9243191809786 l 15.399870406472635 3.7147098195878407 a36.84156171530743,36.84156171530743 0 0,0 -0.15401296582401153,0.6152052403181445 l -15.333646126353564 -3.9792428993033813" fill="#ff6d0a" stroke="none" /><path d="M 120.32669344350535 105.2749913415812 l 44.73455413747053 11.609088630204623 a67.21635287105883,67.21635287105883 0 0,0 -0.30027120781542543,1.117420867912305 l -44.52809485331333 -12.377400431292475" fill="#35ff65" stroke="none" /><path d="M 120.23288151984713 105.62410040840565 l 14.88065384093379 4.136350586645026 a36.44484557738718,36.44484557738718 0 0,0 -0.1732125683891579,0.602975673916813 l -14.807248635658533 -4.391883736066421" fill="#ff6709" stroke="none" /><path d="M 120.02730092923936 106.31721596034902 l 14.745012010101739 4.651022398617867 a36.46115741238312,36.46115741238312 0 0,0 -0.19395208666093333,0.5969231441171468 l -14.662767672424557 -4.904144442712809" fill="#ff6709" stroke="none" /><path d="M 119.9155931802556 106.66101706037122 l 8.924160394624987 2.984796089177963 a30.41008216983068,30.41008216983068 0 0,0 -0.17030973785437425,0.49499981842597546 l -8.871459825827383 -3.137968610693239" fill="#ff0500" stroke="none" /><path d="M 119.79798401119884 107.00284435728193 l 8.604518107437809 3.043547314803204 a30.126933335938798,30.126933335938798 0 0,0 -0.17714025510958634,0.48741390334926826 l -8.550853591322994 -3.191209015158604" fill="#ff0000" stroke="none" /><path d="M 119.67450827220406 107.3425965602758 l 8.860247147333437 3.3066757922034604 a30.457171051988787,30.457171051988787 0 0,0 -0.18753744973434294,0.4896011032420571 l -8.802015418005588 -3.458700462278661" fill="#ff0600" stroke="none" /><path d="M 119.26925614724726 108.34839909993367 l 57.80776844174181 25.045197299801014 a84.0,84.0 0 0,0 -0.5862356610749084,1.3218066540292492 l -57.368091695935625 -26.036552290322952" fill="#4dd2ff" stroke="none" /><path d="M 119.12269723197855 108.67885076344098 l 13.697571454722828 6.216653280391279 a36.04228180050611,36.04228180050611 0 0,0 -0.26126429319280076,0.5627400443746368 l -13.588532544690198 -6.451513392044747" fill="#ff6108" stroke="none" /><path d="M 118.81262510543309 109.33194174019688 l 15.929863125921221 7.901956998945103 a38.78205453888167,38.78205453888167 0 0,0 -0.3018007114840716,0.5954814355989906 l -15.791483744650881 -8.174992646246787" fill="#ff8b0c" stroke="none" /><path d="M 118.64920377521936 109.65438752849418 l 15.530738543404768 8.040009123659612 a38.48844150895466,38.48844150895466 0 0,0 -0.3096440788224191,0.5857299047141655 l -15.390041956357456 -8.306154043459912" fill="#ff870c" stroke="none" /><line stroke="#e1ed5e" stroke-width="0.3" x1="174.80103733775053" x2="179.2010983576182" y1="140.37084112569926" y2="142.7455964860345" /><path d="M 175.68104954172406 140.8457921977663 a86.0,86.0 0 0,1 -30.038265399797805,32.042727171017184" fill="none" id="id5" stroke="none" /><text fill="#e1ed5e" style="font-size:6.75px; font-family:Arial;" text-anchor="middle"><textPath startOffset="22.206326154141568" xlink:href="#id5">May</textPath></text><path d="M 118.30583269289576 110.29060199501025 l 46.10217427547715 25.916282232692456 a73.88727784345718,73.88727784345718 0 0,0 -0.6327847347562042,1.1033135226314668 l -45.649237544568564 -26.706015601182237" fill="#3fffba" stroke="none" /><path d="M 118.12598468904814 110.60418214915192 l 15.016643970666735 8.785135299718513 a38.39764921982628,38.39764921982628 0 0,0 -0.3386656649401368,0.5676231344523208 l -14.86319743002837 -9.042320528056939" fill="#ff850c" stroke="none" /><line stroke="#e1ed5e" stroke-width="0.3" x1="143.8653032363475" x2="146.44561519142675" y1="172.8068346515853" y2="177.08958963109032" /><path d="M 144.38136562736335 173.6633856474863 a86.0,86.0 0 0,1 -40.68145358897372,12.25698825130547" fill="none" id="id6" stroke="none" /><text fill="#e1ed5e" style="font-size:6.75px; font-family:Arial;" text-anchor="middle"><textPath startOffset="21.466115282336833" xlink:href="#id6">June</textPath></text><line stroke="#e1ed5e" stroke-width="0.3" x1="102.19456741930631" x2="102.32365962044197" y1="184.97166512339345" y2="189.96999836594603" /><path d="M 102.22038585953345 185.97133177190398 a86.0,86.0 0 0,1 -42.740103519485714,-10.115201625700543" fill="none" id="id7" stroke="none" /><text fill="#e1ed5e" style="font-size:6.75px; font-family:Arial;" text-anchor="middle"><textPath startOffset="22.20632615414155" xlink:href="#id7">July</textPath></text><line stroke="#e1ed5e" stroke-width="0.3" x1="58.666819895761336" x2="56.23545636021788" y1="174.27360380694188" y2="178.64263932499728" /><path d="M 58.180547188652646 175.14741091055294 a86.0,86.0 0 0,1 -31.652253787137756,-30.449443065178592" fill="none" id="id8" stroke="none" /><text fill="#e1ed5e" style="font-size:6.75px; font-family:Arial;" text-anchor="middle"><textPath startOffset="22.20632615414155" xlink:href="#id8">August</textPath></text><line stroke="#e1ed5e" stroke-width="0.3" x1="26.63291911575756" x2="22.317208475507996" y1="142.92168965132927" y2="145.44649492493687" /><path d="M 25.769776987707644 143.4266507060508 a86.0,86.0 0 0,1 -11.730757126820373,-40.83630448921669" fill="none" id="id9" stroke="none" /><text fill="#e1ed5e" style="font-size:6.75px; font-family:Arial;" text-anchor="middle"><textPath startOffset="21.46611528233685" xlink:href="#id9">September</textPath></text><line stroke="#e1ed5e" stroke-width="0.3" x1="15.007084014347285" x2="10.007500721073583" y1="101.09737516637583" y2="101.16192664675087" /><path d="M 14.007167355692545 101.11028546245083 a86.0,86.0 0 0,1 10.666146001902534,-42.60595125391555" fill="none" id="id10" stroke="none" /><text fill="#e1ed5e" style="font-size:6.75px; font-family:Arial;" text-anchor="middle"><textPath startOffset="22.20632615414155" xlink:href="#id10">October</textPath></text><line stroke="#e1ed5e" stroke-width="0.3" x1="26.266209847984243" x2="21.928928074336255" y1="57.711370442889674" y2="55.22380399835377" /><path d="M 25.398753493254645 57.213857153982495 a86.0,86.0 0 0,1 29.58750427330803,-30.492523968695096" fill="none" id="id11" stroke="none" /><text fill="#e1ed5e" style="font-size:6.75px; font-family:Arial;" text-anchor="middle"><textPath startOffset="21.46611528233685" xlink:href="#id11">November</textPath></text><line stroke="#e1ed5e" stroke-width="0.3" x1="56.762969772571076" x2="54.21961505331055" y1="26.818313649435495" y2="22.513508569990535" /><path d="M 56.25429882871897 25.957352633546506 a86.0,86.0 0 0,1 42.265352541879196,-11.944610805530505" fill="none" id="id12" stroke="none" /><text fill="#e1ed5e" style="font-size:6.75px; font-family:Arial;" text-anchor="middle"><textPath startOffset="22.20632615414155" xlink:href="#id12">December</textPath></text></svg>